<svg width="40" height="40" viewBox="0 0 40 40" fill="none" xmlns="http://www.w3.org/2000/svg">
<path d="M35 0H5V40H35V0Z" fill="white"/>
<path d="M20.4088 25.0325V34.1503C22.9065 34.1503 24.9318 32.1088 24.9318 29.5914C24.9318 27.0739 22.9088 25.0325 20.4088 25.0325ZM6.69638 15.6164H6.68933V38.2594H20.4088V34.1504C17.9111 34.1504 15.8858 32.109 15.8858 29.5915C15.8858 27.0741 17.9111 25.0326 20.4088 25.0326V2.0415C12.9182 2.0415 6.83265 8.09716 6.69638 15.6164Z" fill="#014D2F"/>
<path d="M20.4088 0H5V40H35V0H20.4088ZM34.2951 39.2895H5.70489V0.71048H20.4088V2.04144C27.9911 2.04144 34.1494 8.09473 34.2881 15.614H34.2951V39.2895Z" fill="#014D2F"/>
</svg>
