<svg width="40" height="40" viewBox="0 0 40 40" fill="none" xmlns="http://www.w3.org/2000/svg">
<path fill-rule="evenodd" clip-rule="evenodd" d="M14.1108 10C15.0983 10 15.9522 10.1908 16.682 10.5677C17.4071 10.9445 17.97 11.4788 18.366 12.161C18.7619 12.8432 18.9575 13.6541 18.9575 14.5891C18.9575 15.5146 18.7619 16.3256 18.366 17.0125C17.97 17.7042 17.4071 18.2385 16.682 18.6153C15.9522 18.9922 15.0983 19.183 14.1108 19.183C13.1233 19.183 12.2646 18.9922 11.5348 18.6153C10.8049 18.2337 10.242 17.6994 9.85082 17.0125C9.45965 16.3256 9.26406 15.5146 9.26406 14.5891C9.26406 13.6541 9.45965 12.8432 9.85082 12.161C10.242 11.4788 10.8049 10.9445 11.5348 10.5677C12.2646 10.1908 13.1233 10 14.1108 10ZM15.5037 17.0459C15.8806 16.8312 16.1668 16.5164 16.3529 16.1061C16.5389 15.6911 16.6343 15.1902 16.6391 14.5939C16.6391 13.9976 16.5437 13.4967 16.3576 13.0864C16.1716 12.6762 15.8854 12.3613 15.5085 12.1467C15.1269 11.932 14.6642 11.8223 14.1108 11.8223C13.5574 11.8223 13.0995 11.9272 12.7274 12.1419C12.3553 12.3566 12.0738 12.6714 11.883 13.0817C11.6922 13.4967 11.5968 13.9976 11.5968 14.5939C11.5968 15.1902 11.6922 15.6959 11.883 16.1061C12.0738 16.5211 12.3505 16.8312 12.7226 17.0459C13.0899 17.2605 13.5527 17.3655 14.106 17.3655C14.6594 17.3655 15.1269 17.2605 15.5037 17.0459ZM8.96835 10.1238H6.46866L4.5939 13.0003L2.61895 10.1238H0.0143112L3.12938 14.4505L0 19.0539H2.514L4.41739 16.0915L6.4305 19.0539H9.03037L5.86759 14.5793L8.96835 10.1238ZM5.12818 24.4072C5.71494 24.4072 6.23015 24.5217 6.67856 24.7507C7.12221 24.9797 7.47045 25.3041 7.72328 25.7191C7.97611 26.1341 8.10014 26.6302 8.10014 27.1979C8.10014 27.7704 7.97611 28.2665 7.72328 28.6863C7.47045 29.1061 7.12698 29.4352 6.68333 29.669C6.23969 29.9027 5.71971 30.0268 5.11387 30.0268H0V21.0966H7.43705V22.9141H2.2087V24.4072H5.12818ZM4.83718 28.257C5.16634 28.257 5.42394 28.1663 5.60045 27.9898C5.77695 27.8133 5.8676 27.5557 5.8676 27.2122C5.8676 26.9833 5.82943 26.7924 5.74834 26.6398C5.66724 26.4871 5.54798 26.3679 5.39056 26.282C5.23313 26.1961 5.05185 26.1532 4.83718 26.1532H2.2087V28.257H4.83718ZM8.54841 30.0268L12.4172 21.0966H14.7261L18.5996 30.0268H16.2144L15.4893 28.2331H11.5633L10.8334 30.0268H8.54841ZM13.5382 23.4198L12.2884 26.4728H14.7786L13.5382 23.4198ZM26.4375 24.5122H22.1775V21.0966H19.9068V30.0268H22.1775V26.3488H26.4375V30.0268H28.6987V21.0966H26.4375V24.5122ZM35.5298 25.2707L39.9138 30.0268H37.0182L33.3068 26.0005V30.0268H31.0981V21.0966H33.3068V24.9224L37.0182 21.0966H39.7516L35.5298 25.2707ZM23.771 14.3837L21.5957 10.1238H19.0483L22.5546 16.6449L21.3286 19.0539H23.7662L28.2838 10.1238H25.87L23.771 14.3837ZM34.7144 15.4141L37.5623 10.1238H40V19.0539H37.944V13.2388L35.6732 17.4749H33.7078L31.3894 13.2675V19.0539H29.3334V10.1238H31.8092L34.7144 15.4141Z" fill="#E1192F"/>
</svg>
