<svg width="40" height="40" viewBox="0 0 40 40" fill="none" xmlns="http://www.w3.org/2000/svg">
<path d="M26.0104 20C26.0104 23.3172 23.3118 26.0158 19.9946 26.0158C16.6774 26.0158 13.9788 23.3172 13.9788 20C13.9788 16.6828 16.6774 13.9842 19.9946 13.9842C23.3118 13.9842 26.0104 16.6828 26.0104 20ZM19.9946 0C8.96606 0 -0.00537109 8.97138 -0.00537109 20C-0.00537109 31.0286 8.96606 40 19.9946 40C24.0045 40 28.0246 38.7829 31.3175 36.4814L28.6233 33.35C26.0177 34.976 23.0788 35.9001 19.9946 35.9001C11.2274 35.9001 4.09462 28.7672 4.09462 20C4.09462 11.2328 11.2274 4.1 19.9946 4.1C28.7618 4.1 35.8947 11.2328 35.8947 20C35.8947 22.2003 35.5581 26.2647 32.4874 26.03C31.3961 25.9414 30.1189 25.1642 30.1103 23.2614V20C30.1103 14.4214 25.5733 9.88428 19.9946 9.88428C14.416 9.88428 9.87891 14.4214 9.87891 20C9.87891 25.5786 14.416 30.1157 19.9946 30.1157C22.7046 30.1157 25.2461 29.0571 27.1618 27.13C28.276 28.8643 30.0918 29.9515 32.1589 30.1172C32.336 30.1314 32.5175 30.1386 32.6961 30.1386C38.2108 30.1386 39.9946 24.5459 39.9946 20C39.9946 8.97138 31.0232 0 19.9946 0Z" fill="#FF9E00"/>
</svg>
