<svg width="40" height="40" viewBox="0 0 40 40" fill="none" xmlns="http://www.w3.org/2000/svg">
<path fill-rule="evenodd" clip-rule="evenodd" d="M14.1955 22.6756L18.1244 18.8267V16.2045L14.1955 20.0445V22.6756ZM14.1955 12.9156L18.1244 9.04892V6.58669L14.1955 10.4178V12.9067V12.9156ZM14.1955 16.1423L18.1244 12.2934V9.82226L14.1955 13.6623V16.1423ZM13.0755 6.61336L12.5422 6.11558V0H11.9555V5.52891L11.44 5.02224V0H10.8444V4.44446L10.32 3.9289V0H9.73329V5.83113L13.68 9.68003V0H13.0844V6.61336H13.0755ZM14.1955 19.369L18.1244 15.5201V13.0489L14.1955 16.8889V19.369ZM9.7244 18.8267L13.6711 22.6756V20.0445L9.7244 16.2045V18.8267ZM17.5378 3.9289L17.0133 4.44446V0H16.4266V5.03113L15.8933 5.52891V0H15.3066V6.10669L14.7911 6.61336V0H14.1955V9.68892L18.1244 5.83113V0H17.5378V3.9289ZM9.7244 9.04892L13.6711 12.9156V10.4267L9.7244 6.5778V9.04003V9.04892ZM9.7244 12.2934L13.6711 16.1423V13.6534L9.7244 9.83115V12.2934ZM9.7244 15.5201L13.6711 19.369V16.8889L9.7244 13.0578V15.5201ZM33.1645 17.5556H23.6C23.8088 17.2324 23.9199 16.8559 23.92 16.4712C23.9152 15.3479 22.9722 14.413 21.8489 14.4178C20.7324 14.4226 19.8004 15.3547 19.7955 16.4712C19.7955 16.9156 19.9378 17.3245 20.1778 17.6623C19.9988 17.7814 19.8862 17.9896 19.8844 18.2045C19.8844 18.4356 20.0089 18.6401 20.1778 18.7556C19.9301 19.1035 19.7966 19.5197 19.7955 19.9467C19.7955 21.0651 20.7305 22.0001 21.8489 22.0001C22.9722 22.0049 23.9152 21.07 23.92 19.9467C23.92 19.5467 23.8044 19.1734 23.6 18.8623H30.72V19.2978H30.0089V19.9023H30.72V20.5245H30.0089V21.6801H30.72V21.1645H31.76V21.6801H32.4623V20.5245H31.76V19.9023H32.4623V19.2978H31.76V18.8534H33.1645C33.4356 18.8534 33.6623 18.6267 33.6623 18.3556V18.0534C33.6576 17.7842 33.4337 17.5603 33.1645 17.5556ZM22.9156 19.9556C22.9156 20.5366 22.4299 21.0223 21.8489 21.0223C21.2679 21.0223 20.7822 20.5366 20.7822 19.9556C20.7822 19.5475 21.0597 19.2047 21.2622 18.8712C21.0698 18.7069 20.9568 18.4575 20.96 18.2045C20.96 17.9378 21.0755 17.7067 21.2533 17.5467C21.0619 17.2117 20.7847 16.8648 20.7911 16.4623C20.7911 15.8813 21.2768 15.3956 21.8578 15.3956C22.4388 15.3956 22.9244 15.8813 22.9244 16.4623C22.9244 16.8978 22.4267 17.9289 22.4267 17.9289V18.4801C22.4178 18.489 22.9156 19.5201 22.9156 19.9556ZM6.15106 16.3023V18.8712C6.15106 21.3156 7.21773 22.8979 7.83995 23.5023L11.9111 27.5023C13.0489 28.6134 13.2444 28.9779 13.5022 29.609V26.7645C13.5022 24.4495 12.4258 23.4352 11.733 22.7824C10.5229 21.642 9.33563 20.4735 8.15995 19.2978C7.27054 18.4657 6.58337 17.441 6.15106 16.3023ZM8.15995 25.6445C7.33288 24.895 6.65439 23.9963 6.15994 22.9956V25.209C6.13338 26.9145 6.73083 28.5709 7.83995 29.8668L11.9111 33.8401C13.009 34.9123 13.2296 35.4465 13.4753 36.0417L13.5022 36.1068V33.1112C13.5022 30.7921 12.422 29.7765 11.7347 29.1304L11.7343 29.13L11.7332 29.129C10.5254 27.9931 9.33312 26.8177 8.15995 25.6445ZM19.663 4.74654C19.3813 4.74655 19.0996 4.74671 18.8178 4.76432V5.95544C25.6029 5.43509 32.1714 9.29754 35.0151 15.4798C35.9469 17.5057 36.457 19.6999 36.5143 21.929C36.6294 26.4012 34.8692 30.812 31.7068 33.9764C28.5443 37.1407 24.1346 38.9035 19.6623 38.7911C15.3025 38.7958 11.1192 37.069 8.0322 33.9903C4.94518 30.9117 3.20707 26.7331 3.20001 22.3733C3.20001 17.3333 5.46668 12.8355 9.04892 9.81323V8.28433C6.8592 9.92274 5.08186 12.0494 3.8582 14.4951C2.63453 16.9409 1.99827 19.6385 2 22.3733C2 32.1066 9.91114 40 19.6712 40C24.3492 40.0024 28.8368 38.1469 32.1472 34.8415C35.4576 31.5361 37.3199 27.0513 37.3246 22.3733C37.3246 12.6402 29.4138 4.74695 19.663 4.74654ZM32.9334 30.4266C32.6934 30.8266 32.4268 31.2177 32.1601 31.5822V28.0622H32.9334V30.4266ZM34.4922 26.9631C34.4676 27.0442 34.4427 27.126 34.4179 27.2088C33.9912 26.7733 33.2268 26.7822 32.5423 26.8H32.1601V26.1777H34.7201C34.6519 26.4368 34.5733 26.696 34.4922 26.9631ZM16.6667 26.0799H17.3601V26.0888V33.1111H16.6667V26.0799ZM15.0666 24.737H17.36C17.9555 24.737 18.3733 24.8615 18.6044 25.0926C18.8444 25.3148 18.96 25.7326 18.96 26.3193V32.8971C18.96 33.4837 18.8533 33.8926 18.6044 34.1237C18.2489 34.4882 17.5733 34.4882 17.0222 34.4882L16.6666 34.4793V37.5904L17.36 37.7149V35.1548C18.4266 35.1548 19.1111 34.7993 19.44 34.0704V37.8837H19.6711L20.1155 37.8749V26.4348C20.1155 25.8304 20.2311 25.4037 20.4711 25.1637C20.6933 24.9237 21.1111 24.8081 21.6889 24.8081C21.7706 24.8081 21.8576 24.8065 21.9479 24.8047C22.5157 24.7938 23.2178 24.7803 23.6089 25.1637C23.84 25.4037 23.9467 25.8393 23.9467 26.4348V29.8126H22.3733V26.2037H21.6889V37.7504C21.92 37.7237 22.1333 37.6882 22.3733 37.6437V30.4882H23.9467V37.2793C24.2667 37.1904 24.5867 37.0926 24.9067 36.9771V30.7548C24.9067 30.0437 25.0756 29.5104 25.7956 29.2704L24.9956 24.9415H26.5956L26.8622 29.6615H27.0578L27.3245 24.9415H28.9956L28.0978 29.2704C28.8445 29.537 28.9956 29.9904 28.9956 30.7459V34.7726C29.4619 34.4229 29.9071 34.046 30.3289 33.6437V24.9059H34.9956L35.0845 24.2659H24.16L24.3111 25.057C23.9733 24.417 23.3155 24.097 22.3555 24.097H21.6711C20.5155 24.097 19.8044 24.5592 19.5378 25.4748C19.2978 24.5148 18.56 24.0348 17.3511 24.0348H14.3644V36.9415C14.5955 37.0215 14.8266 37.1015 15.0577 37.1637V24.7459L15.0666 24.737ZM29.5467 29.697L28.7911 28.9859L29.5467 25.1015V29.697ZM26.7084 36.1941C26.6677 36.215 26.6271 36.236 26.5867 36.2569V36.248V30.5591H27.2978V35.8747C27.113 35.9856 26.9097 36.0903 26.7084 36.1941Z" fill="#42AB44"/>
</svg>
