<svg width="40" height="40" viewBox="0 0 40 40" fill="none" xmlns="http://www.w3.org/2000/svg">
<path d="M30.5476 0L9 2.84381V9.28571L30.5476 7.34305V0Z" fill="#E4003A"/>
<path d="M22.3098 12.9762C18.7968 12.9762 15.9416 15.14 15.2337 16.0358V13.4393H9V40H15.1946V30.5528C15.9218 31.4681 18.7573 33.593 22.2901 33.593C28.1524 33.593 31.381 30.4165 31.381 23.2695C31.381 16.1224 28.1568 12.9762 22.3098 12.9762ZM20.0906 28.4474C16.3997 28.4474 15.238 27.108 15.238 23.2543C15.238 19.4005 16.391 18.0612 20.0906 18.0612C23.7903 18.0612 24.9216 19.3811 24.9216 23.2543C24.9216 27.1275 23.8076 28.4388 20.0906 28.4388V28.4474Z" fill="#00274F"/>
</svg>
