<svg width="40" height="40" viewBox="0 0 40 40" fill="none" xmlns="http://www.w3.org/2000/svg">
<path d="M20 0C16 0 12.2 1.2 8.9 3.4C5.6 5.6 3 8.7 1.5 12.4C-1.07288e-06 16 -0.400001 20 0.399999 23.9C1.2 27.8 3.1 31.3 5.9 34.1C8.7 36.9 12.3 38.8 16.1 39.6C19.9 40.4 24 40 27.7 38.5C31.4 37 34.5 34.4 36.7 31.1C38.8 27.8 40 24 40 20C40 14.7 37.9 9.6 34.1 5.9C30.4 2.1 25.3 0 20 0ZM20 37.9C16.5 37.9 13 36.8 10.1 34.9C7.2 32.9 4.9 30.1 3.5 26.9C2.1 23.7 1.8 20 2.5 16.6C3.2 13 4.9 9.9 7.4 7.4C9.9 4.9 13.1 3.2 16.6 2.5C20.1 1.8 23.7 2.2 26.9 3.5C30.1 4.8 33 7.2 34.9 10.1C36.9 13 37.9 16.5 37.9 20.1C37.9 24.8 36 29.4 32.6 32.7C29.3 36.1 24.7 37.9 20 37.9Z" fill="#414042"/>
<path d="M24.4 27.1C26.1 28.9 25.8 32.2 25.3 33.7C25.3 33.8 25.3 33.8 25.2 33.9C25.2 34 25.1 34 25 34C24.1 34.3 22.9 34.6 22.4 34.7C25 32.4 25.4 29.1 24.4 27.1ZM33.8 25C31.7 23.2 29.1 21.9 26.4 21.3C29.2 22.7 31.4 24.9 32.8 27.7C33.3 26.9 33.7 26.1 34 25.3V25.1C33.9 25.1 33.9 25 33.8 25ZM34.9 20.1C34.9 20 34.9 19.9 34.8 19.9C34 19.6 33.1 19.3 32.3 19C32.5 18.9 32.7 18.8 32.8 18.6C32.9 18.4 33 18.3 33.1 18C32.2 18.4 31.2 18.6 30.3 18.6C32 19.3 33.6 20.2 35 21.3C34.9 20.9 34.9 20.5 34.9 20.1Z" fill="#414042"/>
<path d="M26.8 25.4C27.4 25.6 28 25.6 28.6 25.4C26.2 24.8 24.8 21.3 19.2 20.8C19 20.8 18.4 20.9 18.7 20.3C19.5 19.5 20.3 18.8 21.2 18.2C20.8 18.2 18.9 18.4 18.4 18.4C17.9 18.4 17.7 18.3 17.7 17.9C17.7 17.9 16.6 18.9 17.1 19.5C17.2 19.6 17.4 19.6 17.7 19.5C18 19.4 18.4 19.3 18.7 19.2H18.8V19.3L18.2 20.2C18.1 20.5 18 20.7 18.6 20.8C20.2 21.3 21.8 22 23.3 22.9C24.9 23.9 26.2 25.2 27.1 26.9C28 28.5 28.4 30.4 28.4 32.2C29.1 31.7 29.9 31.1 30.5 30.5C30.6 30.4 30.6 30.2 30.6 30.2C29.8 28.3 28.5 26.6 26.8 25.4Z" fill="#414042"/>
<path d="M33 13.3C32.7 13.1 31.1 12.1 30.7 11.9C30.4 11.7 30.1 11.5 29.9 11.2C29.7 10.9 29.6 10.5 29.6 10.2C29.7 9.19998 29 7.79998 27.1 6.09998V6.59998C26.5 6.09998 25.8 5.69998 25 5.59998C25 5.59998 25.2 4.99998 25.2 4.59998C25.2 4.19998 25 3.79998 24.5 4.09998C22.1 5.09998 18.2 5.09998 14.1 9.09998C14.6 7.79998 15.5 6.59998 16.6 5.69998C15.6 5.89998 14.6 6.29998 13.6 6.69998C13.3 6.79998 13.1 7.09998 12.9 7.29998C11.4 9.59998 10.4 12.2 10 14.9C9.60002 13 9.70002 11 10 8.99998C9.20002 9.69998 8.40002 10.6 7.80002 11.5C7.60002 11.8 7.40002 12.1 7.40002 12.5C7.40002 15.4 8.00002 18.2 9.10002 20.8C7.50002 19.5 6.30002 16.8 5.70002 15.3C5.30002 16.5 5.00002 17.8 4.90002 19.1C4.90002 19.6 5.10002 20.2 5.40002 20.6C7.00002 23.4 9.40002 25.7 12.2 27.3C10.5 27.1 7.10002 25.2 5.40002 23.8C5.70002 25.1 6.20002 26.3 6.80002 27.4C7.10002 27.9 7.50002 28.3 8.10002 28.5C10.9 30 14 30.8 17.2 30.6C14.8 31.5 12.2 31.6 9.70002 31C10.1 31.4 10.6 31.8 11.1 32.2C12.2 33 13.5 33.6 14.8 33.9C18 34.5 22 32.2 21 28C20.8 28.4 20.6 28.7 20.3 29C20 29.3 19.6 29.5 19.2 29.6C20.8 28 20.6 25.5 17.9 25.2C16.7 25.1 15.6 25.1 14.4 25.2C14.1 25.2 13.7 25.2 13.4 25.1C13.1 25 12.8 24.8 12.6 24.6L14.2 24.4C15.1 24 16 23.8 17 23.8C16.9 23.6 16.6 23.2 15.3 23.6C15.1 23.7 14.8 23.7 14.6 23.6C14.4 23.5 14.2 23.4 14 23.2C15.3 23.5 15.7 22.1 16.9 22.9C17.1 23.1 17.5 23.1 17.4 22.7C17.3 22.5 17.1 22.3 17 22.2C16.8 22.1 16.6 22 16.3 22.1C15.1 21.9 13.9 22 12.8 22.4C12.3 22.6 11.9 23 11.5 23.3C11.5 22.7 11.6 21 12.4 20.2C13.6 19.5 14.9 19 16.3 18.9C16.2 18.8 16.2 18.6 16.2 18.5C16.2 18.4 16.2 18.2 16.3 18.1C16.7 17.6 17.9 16.8 24.9 16.8L24.3 17.4C25.8 17.5 27.3 17.8 28.7 18.3C28.9 18.4 29.3 18.5 29.7 17.7C29.9 17.5 29.7 17.5 29.3 17.2C29.4 17.1 29.4 16.9 29.4 16.8C29.4 16.6 29.2 16.6 29.2 16.7C29 16.9 28.5 16.9 28.4 16.6C28.3 16.3 28.1 16.1 27.9 16C27.7 15.8 27.4 15.7 27.1 15.7C27.3 15.5 27.6 15.3 27.9 15.3C28.2 15.2 28.5 15.2 28.8 15.3C28.8 15.3 28.9 15.6 29.1 15.5C29.3 15.4 29.5 15.2 29.7 15.4C29.8 15.5 29.8 15.7 29.8 15.8C29.7 16 29.8 16 30 15.9L30.4 15.5C30.7 15.6 31 15.6 31.3 15.5C31.6 15.4 31.8 15.2 32 15C32.2 14.8 32.3 14.5 32.4 14.2C32.9 13.9 33.2 13.4 33 13.3ZM19.6 13L20.5 12.7C20.8 12.6 21.1 12.6 20.8 12.9C20.1 13.9 20.1 15.9 21.1 16.3C20.5 16.3 19.8 16.4 19.2 16.5C19.1 15.6 19.2 14.6 19.4 13.7C19 13.9 18.5 14.1 18.3 14.2C18.2 12.3 19.9 9.09998 22 8.29998C20.7 9.49998 19.8 11.2 19.6 13ZM24.1 5.19998C23.9 5.59998 23.3 6.19998 23.5 6.69998C23.2 6.79998 22.8 6.89998 22.5 7.09998C22.3 7.29998 22.2 7.09998 22.3 6.89998C22.6 6.19998 23.2 5.59998 23.9 5.09998C24.2 4.89998 24.3 5.09998 24.1 5.19998ZM28.6 10.7C28.5 11 28.5 11.1 28.2 11C28.1 10.9 27.9 10.9 27.7 10.8C27.5 10.7 27.5 10.7 27.5 10.9C27.7 11.2 27.8 11.6 27.7 12C27.3 11.3 26.9 10.6 26.3 10.1C26.8 9.99998 27.4 10.1 27.9 10.3C28.1 10.4 28.4 10.4 28.5 9.39998C28.8 9.79998 28.8 10.3 28.6 10.7Z" fill="#414042"/>
</svg>
