<svg width="40" height="40" viewBox="0 0 40 40" fill="none" xmlns="http://www.w3.org/2000/svg">
<path d="M39.92 19.7V19C39.4 15.16 35.92 11.41 32.81 10C30.8845 9.02157 28.8035 8.38543 26.66 8.12C25.0825 7.9339 23.5439 7.502 22.1 6.84L21.74 6.6C21.62 6.52 21.5 6.48 21.38 6.4C20.675 5.87334 20.031 5.2696 19.46 4.6C19.1421 4.20757 18.8735 3.7777 18.66 3.32L18.5 3V19.86H20.3V7.86C20.605 8.14855 20.9403 8.40335 21.3 8.62C22.7631 9.26758 24.3127 9.69876 25.9 9.9C27.8006 10.1792 29.6628 10.6757 31.45 11.38C35.45 13.18 37.84 17.38 38.12 19.73V22.73H21.74V31.12C22.2624 31.122 22.7841 31.0819 23.3 31H23.46V24.38H40V22.66C40 21.78 40 20.66 39.92 19.66" fill="#CD1F45"/>
<path d="M18.46 23.26C16.8631 23.3213 15.2725 23.4951 13.7 23.78C12.78 23.94 11.86 24.18 10.98 24.42C10.58 24.54 10.14 24.7 9.74 24.86C9.58 24.42 9.46 24.02 9.34 23.62V23.46C9.18774 22.8275 9.0742 22.1864 9 21.54H18.47L18.46 23.26ZM18.46 31.97H18.34C18.02 31.89 17.66 31.85 17.34 31.73C16.5613 31.5258 15.8095 31.2304 15.1 30.85C14.6238 30.6107 14.1717 30.326 13.75 30C12.6931 29.2705 11.7838 28.3476 11.07 27.28C10.9094 27.0627 10.7624 26.8356 10.63 26.6C10.71 26.6 10.79 26.6 10.87 26.52C10.9302 26.5103 10.986 26.4824 11.03 26.44C11.83 26.2 12.75 25.92 13.71 25.72C15.2683 25.4231 16.8455 25.236 18.43 25.16V32L18.46 31.97ZM11.07 30.53C10.4692 30.3107 9.88161 30.0569 9.31001 29.77L9.07 29.65C8.59 29.41 8.07 29.17 7.63 28.89C7.63 28.89 7.51 28.89 7.47 28.77C7.43 28.65 7.55 28.65 7.63 28.57L7.75 28.41C8.03483 28.1314 8.34258 27.8771 8.67 27.65C8.67 27.65 8.75 27.65 8.79 27.57C8.80893 27.5618 8.82936 27.5575 8.85001 27.5575C8.87065 27.5575 8.89108 27.5618 8.91 27.57C8.98559 27.6709 9.0525 27.7779 9.11 27.89C9.16751 28.0022 9.23442 28.1092 9.31001 28.21C9.83039 28.9692 10.4195 29.6789 11.07 30.33C11.1399 30.4316 11.2203 30.5255 11.31 30.61C11.2302 30.6169 11.1499 30.6169 11.07 30.61V30.53ZM6.23 27.1C6.10647 27.2807 5.97293 27.4543 5.83 27.62C5.55 27.38 5.27 27.14 5.03 26.9C3.43441 25.523 2.37272 23.6296 2.03 21.55H7C7.07316 22.5648 7.24735 23.5698 7.52 24.55C7.64043 24.9615 7.80121 25.3601 8 25.74L7.8 25.86L7.6 25.98C7.10052 26.2977 6.64062 26.6737 6.23 27.1ZM2.43001 18.27C2.6962 17.4792 3.08787 16.7364 3.59 16.07C4.03593 15.47 4.53097 14.9081 5.07 14.39C5.18647 14.2936 5.29361 14.1865 5.39 14.07C5.49309 13.987 5.58696 13.8931 5.67 13.79C6.20884 14.4342 6.85921 14.9762 7.59 15.39H7.67L7.95 15.55C7.83 15.87 7.67 16.27 7.55 16.67V16.83C7.47001 17.15 7.35 17.47 7.31 17.75C7.16591 18.3929 7.06237 19.0442 7 19.7H2.00001C2.07254 19.2094 2.19312 18.7271 2.36 18.26L2.43001 18.27ZM7.28 12.55C7.36863 12.5109 7.44983 12.4568 7.52 12.39C8.04 12.07 8.52 11.83 9.08 11.55H9.2C9.64239 11.3261 10.0964 11.1258 10.56 10.95L10.96 10.79H11.08L10.88 10.99C10.2154 11.6428 9.62508 12.3672 9.12 13.15C9.04 13.27 8.96 13.43 8.88 13.55L8.64001 13.91C8.25402 13.6509 7.90137 13.3453 7.59 13C7.45795 12.8781 7.33744 12.7442 7.23 12.6C7.27373 12.5794 7.31417 12.5525 7.35 12.52L7.28 12.55ZM39.2 25.78H24.7V27.5H34.7C34.3148 27.8669 33.9001 28.2013 33.46 28.5C29.5333 30.9161 25 32.1648 20.39 32.1V21.54H37V19.7H9C9 19.18 9.12 18.7 9.2 18.22C9.2 18.06 9.28 17.86 9.32 17.7C9.42369 17.2516 9.55733 16.8106 9.72001 16.38L9.96 16.46C10.2859 16.5888 10.6199 16.6957 10.96 16.78C11.8482 17.0561 12.7581 17.2568 13.68 17.38H13.92C14.6 17.5 15.4 17.62 16.28 17.7C16.96 17.78 17.68 17.78 18.44 17.82V15.82C17.7716 15.8179 17.1039 15.7778 16.44 15.7C15.68 15.62 14.92 15.54 14.2 15.42C14.0239 15.4164 13.8491 15.3895 13.68 15.34C12.77 15.1851 11.8738 14.9577 11 14.66C10.88 14.66 10.76 14.66 10.68 14.58C10.6 14.5 10.6 14.58 10.56 14.58L11 14C11.0308 13.9283 11.0712 13.861 11.12 13.8C11.8665 12.7596 12.7707 11.8419 13.8 11.08C15.1393 10.1282 16.6785 9.49537 18.3 9.23003H18.46V7.23003H18.3C18.2482 7.21173 18.1918 7.21173 18.14 7.23003C16.6634 7.34859 15.1945 7.5489 13.74 7.83003C12.8142 8.02673 11.9049 8.29418 11.02 8.63003C10.4194 8.80285 9.83134 9.01669 9.26 9.27003C8.68433 9.51753 8.1234 9.79799 7.58 10.11C6.68569 10.6155 5.82399 11.1766 5 11.79C3.85376 12.6788 2.84314 13.7298 2.00001 14.91C1.40067 15.742 0.928815 16.6588 0.600005 17.63C0.27223 18.597 0.0968015 19.6091 0.080005 20.63C4.96954e-06 23.9 1.76 27 5 29.49C5.19332 29.6138 5.38023 29.7473 5.56 29.89C5.76 30.01 5.92 30.17 6.12 30.29C6.48 30.49 6.84 30.73 7.2 30.93C7.32787 31.0188 7.4615 31.099 7.6 31.17C8.08 31.41 8.60001 31.65 9.04 31.85L9.28 31.97C9.85311 32.2303 10.4408 32.4574 11.04 32.65C11.92 32.93 12.84 33.21 13.76 33.41C15.8828 33.8921 18.0532 34.1336 20.23 34.13C25.289 34.2288 30.2655 32.8378 34.54 30.13C35.274 29.6517 35.9694 29.1168 36.62 28.53C37.5361 27.686 38.4041 26.7912 39.22 25.85L39.2 25.78Z" fill="#073D59"/>
</svg>
